<?xml version="1.0" standalone="no"?>
<!DOCTYPE svg PUBLIC "-//W3C//DTD SVG 20010904//EN"
 "http://www.w3.org/TR/2001/REC-SVG-20010904/DTD/svg10.dtd">
<svg version="1.0" xmlns="http://www.w3.org/2000/svg"
 width="250.000000pt" height="250.000000pt" viewBox="0 0 250.000000 250.000000"
 preserveAspectRatio="xMidYMid meet">

<g transform="translate(0.000000,250.000000) scale(0.100000,-0.100000)"
fill="#000000" stroke="none">
<path d="M1140 2494 c-14 -2 -59 -9 -100 -15 -159 -23 -346 -99 -500 -202 -96
-64 -253 -221 -317 -317 -98 -146 -167 -312 -199 -477 -24 -119 -24 -347 0
-466 88 -451 413 -817 846 -955 141 -44 228 -57 390 -56 118 1 166 6 256 27
250 57 447 169 627 356 403 418 462 1057 143 1546 -63 96 -201 244 -290 311
-205 154 -447 239 -706 248 -69 3 -136 3 -150 0z m341 -54 c299 -61 551 -221
738 -467 71 -93 165 -287 196 -403 76 -285 48 -585 -80 -846 -174 -357 -489
-597 -880 -669 -135 -26 -376 -17 -508 18 -462 122 -812 503 -894 972 -23 134
-14 378 20 505 57 217 160 395 321 556 179 179 369 282 614 334 125 27 342 26
473 0z"/>
<path d="M1090 2307 c0 -43 5 -78 12 -85 7 -7 40 -12 80 -12 l68 0 0 -45 c0
-38 3 -45 20 -45 19 0 20 7 20 90 0 83 1 90 20 90 19 0 20 -7 20 -90 0 -83 1
-90 20 -90 19 0 20 7 20 130 0 122 -1 130 -19 130 -13 0 -21 -8 -23 -22 -2
-13 -10 -23 -18 -23 -8 0 -16 10 -18 23 -2 14 -10 22 -23 22 -17 0 -19 -7 -19
-65 l0 -65 -60 0 -60 0 0 45 0 45 45 0 c38 0 45 3 45 20 0 18 -7 20 -65 20
l-65 0 0 -73z"/>
<path d="M1607 2326 c-3 -7 -1 -18 5 -24 6 -6 6 -12 -1 -16 -6 -4 -11 -20 -11
-36 0 -33 32 -62 86 -80 29 -10 39 -9 59 4 14 9 25 24 25 32 0 10 6 14 14 11
8 -3 17 1 20 9 3 9 -8 21 -35 34 -22 12 -37 25 -34 30 3 5 -3 14 -14 19 -14 8
-20 8 -23 0 -3 -8 -18 -4 -45 9 -33 17 -42 19 -46 8z m97 -67 c31 -15 41 -38
23 -57 -13 -12 -19 -11 -48 3 -39 20 -49 33 -42 52 6 16 34 17 67 2z"/>
<path d="M708 2249 c-65 -33 -118 -63 -118 -68 0 -21 21 -21 61 -1 22 12 43
19 46 16 11 -11 -8 -37 -42 -58 -23 -13 -33 -24 -27 -30 14 -14 91 28 102 56
7 19 14 22 35 18 31 -6 105 25 105 45 0 16 0 16 -43 -2 -34 -14 -67 -12 -67 4
0 4 18 17 40 30 39 21 48 35 33 44 -5 3 -61 -22 -125 -54z"/>
<path d="M1805 2178 c-22 -47 -23 -53 -8 -62 11 -6 19 -4 25 9 7 11 17 15 33
11 31 -8 42 10 15 24 -15 8 -19 17 -14 34 4 16 0 25 -11 30 -12 4 -22 -7 -40
-46z"/>
<path d="M1560 2187 c0 -7 43 -34 95 -60 52 -26 95 -52 95 -57 0 -6 -7 -24
-15 -40 -13 -25 -13 -29 2 -34 19 -8 16 -11 41 40 11 22 17 45 14 51 -6 9
-216 113 -228 113 -2 0 -4 -6 -4 -13z"/>
<path d="M765 2128 c-66 -33 -121 -61 -123 -63 -1 -1 0 -10 4 -19 5 -14 13
-13 62 14 30 16 56 29 57 27 2 -1 11 -19 22 -40 17 -34 20 -36 37 -24 17 13
17 15 2 45 -9 17 -16 35 -16 40 0 5 23 19 50 32 46 21 68 51 38 49 -7 0 -67
-27 -133 -61z"/>
<path d="M1089 2045 c-261 -52 -496 -248 -591 -493 -94 -241 -73 -498 60 -727
45 -77 190 -222 267 -267 314 -182 667 -152 954 82 95 77 198 238 241 375 34
108 40 313 11 425 -107 424 -520 689 -942 605z m260 -484 c120 -187 131 -207
131 -250 0 -61 -67 -171 -104 -171 -18 0 -33 15 -65 63 l-41 62 28 5 c55 10
43 45 -79 235 -61 96 -113 175 -115 175 -8 0 -187 -274 -200 -306 -20 -47 -17
-98 6 -145 29 -55 210 -332 224 -341 20 -13 -138 -8 -164 5 -24 12 -96 113
-191 270 -83 137 -78 189 38 360 42 62 123 181 181 266 l105 153 57 -88 c31
-49 116 -181 189 -293z m43 359 c39 -30 344 -508 358 -559 21 -78 7 -117 -96
-278 -52 -81 -108 -160 -125 -175 -28 -27 -33 -28 -144 -28 -111 0 -116 1
-144 28 -16 15 -75 99 -132 187 -90 139 -103 166 -107 210 -3 45 1 56 40 114
24 36 49 67 56 69 16 5 60 -42 90 -96 18 -33 20 -40 7 -36 -22 9 -45 -14 -44
-45 0 -15 36 -79 87 -156 l87 -130 48 -3 c30 -2 55 2 64 10 21 17 122 173 139
215 8 18 14 52 14 76 0 51 -21 87 -233 410 l-137 207 74 0 c58 0 79 -4 98 -20z
m-352 -1235 c0 -87 -3 -105 -15 -105 -12 0 -15 16 -15 85 0 71 -2 83 -15 79
-21 -8 -19 16 3 32 37 29 42 19 42 -91z m164 83 c25 -35 22 -152 -4 -178 -11
-11 -26 -20 -33 -20 -20 0 -57 30 -57 46 0 19 20 18 35 -3 11 -15 15 -15 29
-4 9 7 16 24 16 36 0 18 -4 21 -25 17 -14 -2 -32 1 -40 8 -20 16 -19 84 1 104
22 23 60 20 78 -6z m156 15 c1 -5 -12 -52 -27 -105 -22 -77 -32 -98 -46 -98
-20 0 -18 14 15 109 24 71 24 71 -17 71 -24 0 -35 5 -35 15 0 12 13 15 55 15
30 0 55 -3 55 -7z m127 -5 c19 -24 21 -46 9 -70 -10 -19 -10 -26 1 -36 15 -15
17 -46 3 -72 -14 -26 -57 -34 -86 -15 -27 17 -33 55 -9 55 8 0 15 -7 15 -15 0
-24 31 -31 45 -11 17 22 8 53 -16 59 -25 7 -24 24 1 32 27 9 28 55 1 55 -10 0
-21 -7 -25 -15 -7 -19 -36 -20 -36 -1 0 38 74 63 97 34z"/>
<path d="M1144 756 c-3 -8 -4 -25 -2 -38 4 -32 42 -32 46 0 6 38 -32 70 -44
38z"/>
<path d="M429 1989 c-8 -16 -13 -18 -25 -9 -16 14 -44 6 -44 -12 1 -7 44 -46
97 -86 87 -67 97 -72 111 -58 9 8 14 17 11 19 -2 2 -32 25 -66 52 -61 46 -74
67 -53 80 14 9 12 22 -5 29 -9 3 -19 -3 -26 -15z"/>
<path d="M2080 1991 c0 -5 27 -44 61 -87 34 -42 57 -79 52 -83 -5 -3 -35 -26
-66 -50 -54 -41 -59 -43 -74 -28 -15 15 -15 18 8 35 71 56 72 58 62 76 -8 15
-14 12 -56 -20 -43 -34 -49 -36 -63 -22 -14 14 -11 19 30 48 25 19 46 39 46
46 0 28 -23 24 -66 -11 l-45 -37 -24 22 c-21 20 -25 21 -30 7 -4 -10 24 -53
80 -124 85 -107 112 -129 108 -86 -2 16 16 36 67 78 39 31 70 61 70 68 0 19
-130 177 -146 177 -8 0 -14 -4 -14 -9z"/>
<path d="M308 1895 c-14 -8 -36 -30 -47 -49 -40 -64 -19 -130 47 -142 30 -6
37 -2 77 40 54 56 61 101 20 141 -27 28 -57 31 -97 10z m63 -35 c35 -19 16
-85 -32 -110 -53 -29 -80 44 -34 94 26 29 37 31 66 16z"/>
<path d="M247 1484 c-12 -13 -8 -52 7 -57 8 -3 22 1 33 8 14 11 16 18 7 32
-12 19 -36 28 -47 17z"/>
<path d="M2210 1476 c-18 -22 -5 -46 25 -46 23 0 26 4 23 27 -3 32 -29 41 -48
19z"/>
<path d="M133 1187 c2 -6 20 -15 39 -20 32 -8 36 -13 40 -44 4 -32 1 -38 -29
-55 -20 -12 -33 -28 -33 -41 0 -18 2 -19 18 -5 9 8 50 33 89 54 42 23 73 46
73 55 0 11 -27 22 -101 41 -63 17 -99 22 -96 15z m155 -47 c21 0 13 -16 -13
-28 -38 -17 -45 -15 -45 14 0 22 3 25 23 20 12 -3 28 -6 35 -6z"/>
<path d="M2166 1165 c-3 -9 0 -15 7 -15 7 0 25 -12 40 -28 l26 -27 -44 -19
c-25 -10 -45 -24 -45 -32 0 -12 6 -12 38 2 70 30 78 32 105 27 15 -3 34 -2 44
1 15 6 15 8 3 16 -8 6 -29 10 -45 10 -23 0 -41 11 -70 40 -43 44 -50 47 -59
25z"/>
<path d="M345 991 c-16 -14 -173 -61 -207 -61 -26 0 -29 -2 -18 -15 17 -21 31
-19 146 18 86 27 100 35 95 50 -4 11 -10 14 -16 8z"/>
<path d="M2110 925 c-28 -65 -34 -95 -21 -95 6 0 11 6 11 13 1 37 16 38 94 8
89 -36 86 -35 86 -17 0 8 -17 20 -37 27 -21 7 -58 20 -82 31 -43 18 -43 19
-27 43 10 15 12 26 6 30 -6 4 -19 -15 -30 -40z"/>
<path d="M283 836 c-24 -21 -28 -32 -28 -76 0 -46 4 -55 33 -81 87 -78 200 16
150 126 -25 56 -107 72 -155 31z m127 -26 c47 -47 6 -130 -64 -130 -39 0 -76
36 -76 75 0 60 97 98 140 55z"/>
<path d="M2037 777 c-4 -10 19 -29 71 -58 93 -54 92 -54 92 -36 0 8 -26 30
-57 47 -32 18 -68 39 -79 47 -19 12 -22 12 -27 0z"/>
<path d="M1962 667 c-13 -14 -22 -36 -22 -55 0 -42 35 -52 90 -27 45 20 70 15
70 -15 0 -22 -33 -60 -52 -60 -9 0 -9 -3 1 -12 20 -21 73 44 69 84 -4 43 -29
56 -70 39 -73 -30 -114 -7 -69 38 12 12 21 23 21 26 0 12 -18 3 -38 -18z"/>
<path d="M477 593 c-45 -50 -56 -69 -52 -86 8 -26 41 -57 61 -57 8 0 14 -7 14
-15 0 -8 4 -15 8 -15 16 0 134 128 128 139 -5 7 -28 -10 -60 -44 -55 -58 -82
-67 -109 -37 -26 29 -21 44 33 97 48 47 59 68 43 78 -5 3 -34 -24 -66 -60z"/>
<path d="M1813 524 l-41 -27 60 -73 c55 -68 78 -87 78 -65 0 4 -23 39 -52 75
-42 55 -49 69 -37 77 8 5 23 8 34 7 16 -3 20 -10 19 -39 -1 -34 2 -38 36 -48
46 -14 87 -14 95 -1 3 6 -4 10 -17 10 -13 0 -39 5 -59 10 -33 9 -35 12 -31 42
3 22 0 35 -14 45 -24 17 -23 17 -71 -13z"/>
<path d="M1649 420 l-37 -19 40 -83 c22 -46 41 -84 43 -86 7 -7 95 43 95 55 0
9 -10 7 -32 -7 -43 -26 -45 -26 -64 11 -16 32 -13 40 21 52 6 3 7 7 3 11 -3 4
-15 3 -26 -3 -16 -8 -21 -6 -31 15 -15 33 -15 33 14 44 14 5 25 14 25 20 0 14
-9 12 -51 -10z"/>
<path d="M797 361 c-15 -37 -27 -76 -27 -88 0 -28 32 -54 69 -55 17 -1 31 -5
31 -10 0 -4 6 -8 14 -8 7 0 29 38 48 84 28 68 33 86 21 90 -8 3 -16 -2 -20
-12 -19 -57 -54 -123 -68 -128 -9 -4 -27 -2 -41 4 -31 15 -31 45 1 118 29 66
28 61 12 67 -8 3 -22 -20 -40 -62z"/>
<path d="M1523 311 c-2 -33 -7 -69 -11 -81 -7 -20 -12 -16 -51 44 -28 42 -50
66 -62 66 -15 0 -7 -16 39 -82 32 -46 64 -83 72 -83 10 0 17 15 21 45 19 140
20 150 7 150 -9 0 -14 -19 -15 -59z"/>
<path d="M1045 318 c0 -18 -4 -61 -8 -95 -4 -37 -3 -63 3 -63 5 0 12 32 16 70
6 67 16 86 27 56 3 -7 27 -46 53 -87 44 -70 48 -72 54 -48 15 52 22 179 11
179 -6 0 -12 -19 -12 -42 -1 -24 -4 -56 -8 -73 -6 -29 -7 -28 -56 52 -54 89
-80 105 -80 51z"/>
<path d="M1304 269 c3 -34 6 -77 6 -95 0 -25 4 -34 16 -34 12 0 15 6 10 23 -3
12 -6 55 -6 95 0 60 -3 72 -16 72 -15 0 -16 -9 -10 -61z"/>
</g>
</svg>
