<svg xmlns="http://www.w3.org/2000/svg" width="250" height="250" viewBox="0 0 250 250" version="1.1"><path d="M 102.500 1.595 C 78.843 5.783, 54.755 18.417, 36.909 36 C -1.016 73.364, -11.034 132.593, 12.518 180.211 C 30.478 216.524, 64 241.708, 103.381 248.474 C 121.985 251.670, 146.409 249.883, 164 244.039 C 195.891 233.443, 223.482 208.722, 238.003 177.734 C 243.965 165.012, 248.703 147.034, 249.134 135.500 L 249.284 131.500 250 135.500 C 250.428 137.892, 250.713 133.269, 250.708 124 C 250.703 114.452, 250.431 110.228, 250 113 L 249.300 117.500 249.150 113.208 C 248.931 106.949, 246.277 94.763, 242.961 84.789 C 236.768 66.165, 227.400 51.230, 212.593 36.373 C 193.936 17.654, 171.579 5.901, 146.209 1.477 C 135.625 -0.369, 113.255 -0.308, 102.500 1.595 M 103.922 5.552 C 53.651 14.655, 14.301 54.189, 5.548 104.385 C 3.567 115.745, 3.567 134.255, 5.548 145.615 C 15.668 203.648, 65.854 246, 124.500 246 C 157.434 246, 186.205 234.044, 209.627 210.625 C 240.555 179.702, 252.297 136.964, 241.529 94.514 C 236.157 73.339, 226.805 57.033, 210.500 40.416 C 191.436 20.986, 170.583 9.939, 144.619 5.514 C 133.807 3.671, 114.208 3.689, 103.922 5.552 M 109.210 20.250 L 109.500 28.500 117.250 28.792 L 125 29.084 125 33.542 C 125 37.304, 125.306 38, 126.961 38 C 128.738 38, 128.949 37.177, 129.211 29.250 C 129.442 22.267, 129.803 20.500, 131 20.500 C 132.197 20.500, 132.558 22.267, 132.789 29.250 C 133.051 37.177, 133.262 38, 135.039 38 C 136.886 38, 137 37.247, 137 25 C 137 12.667, 136.897 12, 135 12 C 133.667 12, 133 12.667, 133 14 C 133 15.333, 132.333 16, 131 16 C 129.667 16, 129 15.333, 129 14 C 129 12.667, 128.333 12, 127 12 C 125.205 12, 125 12.667, 125 18.500 L 125 25 119.500 25 L 114 25 114 20.500 L 114 16 118 16 C 121.333 16, 122 15.667, 122 14 C 122 12.204, 121.333 12, 115.460 12 L 108.919 12 109.210 20.250 M 160.573 17.670 C 160.221 18.589, 160.446 19.657, 161.073 20.045 C 161.900 20.556, 161.910 20.938, 161.107 21.434 C 160.498 21.810, 160 23.409, 160 24.986 C 160 31.770, 174.571 37.078, 176.501 30.998 C 176.849 29.899, 177.779 29, 178.567 29 C 179.355 29, 180 28.812, 180 28.582 C 180 28.352, 180.244 27.529, 180.542 26.752 C 180.900 25.819, 179.725 24.729, 177.069 23.531 C 174.861 22.535, 173.280 21.356, 173.555 20.911 C 174.197 19.872, 170.874 18.135, 169.318 18.696 C 168.668 18.930, 166.777 18.419, 165.117 17.561 C 161.381 15.629, 161.356 15.629, 160.573 17.670 M 70.536 25.030 C 64.506 28.195, 59.419 31.242, 59.233 31.801 C 58.525 33.924, 61.085 33.997, 65.063 31.968 C 67.335 30.809, 69.412 30.078, 69.678 30.345 C 70.661 31.327, 67.852 35.025, 65.005 36.498 C 63.126 37.469, 62.271 38.543, 62.630 39.479 C 63.105 40.716, 63.803 40.631, 67.135 38.931 C 69.304 37.825, 71.848 35.700, 72.789 34.210 C 74.075 32.173, 75.165 31.577, 77.174 31.809 C 80.774 32.225, 88.634 28.234, 87.146 26.746 C 86.357 25.957, 85.341 25.979, 83.480 26.827 C 80.540 28.167, 76 28.393, 76 27.199 C 76 26.759, 78.068 25.394, 80.595 24.166 C 84.429 22.303, 84.988 21.691, 83.973 20.467 C 83.303 19.660, 82.473 19.062, 82.128 19.138 C 81.782 19.214, 76.566 21.865, 70.536 25.030 M 164.302 24.656 C 163.496 26.756, 167.325 30, 170.611 30 C 173.735 30, 173.836 26.699, 170.777 24.557 C 167.887 22.532, 165.101 22.575, 164.302 24.656 M 180.481 32.037 C 179.077 34.808, 178.196 37.508, 178.523 38.037 C 179.448 39.534, 181.997 39.171, 182.658 37.448 C 183.092 36.319, 184.035 36.068, 186.127 36.528 C 188.303 37.006, 189 36.792, 189 35.647 C 189 34.815, 188.100 33.849, 187.001 33.500 C 185.329 32.970, 185.182 32.529, 186.104 30.806 C 186.950 29.225, 186.892 28.546, 185.853 27.888 C 183.592 26.455, 183.129 26.812, 180.481 32.037 M 77 36.649 C 70.125 40.288, 64.332 43.411, 64.126 43.590 C 63.921 43.768, 64.024 44.620, 64.356 45.484 C 64.878 46.846, 65.622 46.718, 69.946 44.527 C 72.689 43.137, 75.388 42, 75.943 42 C 76.498 42, 77.765 43.584, 78.758 45.520 C 80.377 48.676, 80.753 48.901, 82.399 47.697 C 84.122 46.438, 84.135 46.162, 82.617 43.227 C 81.728 41.507, 81 39.861, 81 39.570 C 81 39.279, 82.912 38.077, 85.250 36.899 C 90.965 34.020, 91.979 33.108, 91.334 31.427 C 91.032 30.642, 90.497 30.007, 90.143 30.016 C 89.789 30.025, 83.875 33.010, 77 36.649 M 155.701 31.336 C 155.356 32.235, 158.435 34.270, 165.094 37.546 C 170.542 40.227, 175 42.573, 175 42.760 C 175 42.947, 174.307 44.440, 173.459 46.079 C 171.823 49.243, 172.208 51, 174.539 51 C 175.884 51, 180 44.254, 180 42.048 C 180 41.060, 159.001 30, 157.124 30 C 156.623 30, 155.983 30.601, 155.701 31.336 M 108 45.482 C 70.069 53.937, 44.014 86.317, 44.014 125 C 44.014 164.194, 70.663 196.792, 109.066 204.573 C 119.806 206.750, 136.303 206.070, 146.973 203.012 C 174.264 195.189, 195.695 173.015, 203.127 144.912 C 206.119 133.598, 206.131 115.985, 203.155 104.797 C 198.893 88.774, 189.094 73.328, 176.430 62.670 C 168.800 56.249, 154.808 48.894, 145.500 46.412 C 137.056 44.160, 116.244 43.644, 108 45.482 M 42.841 50.883 C 41.912 52.371, 41.248 52.621, 40.304 51.837 C 38.740 50.539, 36 51.448, 36 53.264 C 36 53.994, 40.296 57.871, 45.546 61.880 C 53.358 67.844, 55.357 68.949, 56.546 67.962 C 57.346 67.298, 58 66.461, 58 66.102 C 58 65.742, 55.063 63.229, 51.472 60.517 C 46.837 57.016, 45.130 55.139, 45.583 54.043 C 47.346 49.785, 45.125 47.225, 42.841 50.883 M 208.360 50.505 C 208.007 51.425, 209.961 54.706, 213.391 58.951 C 216.476 62.769, 219 66.341, 219 66.888 C 219 68.423, 207.130 77.199, 206 76.500 C 204.050 75.295, 205.051 73.128, 209 70 C 211.200 68.258, 213 66.221, 213 65.475 C 213 62.633, 210.830 63.006, 206.443 66.600 C 202.473 69.853, 201.713 70.142, 200.448 68.877 C 199.183 67.611, 199.647 66.944, 204.111 63.611 C 208.751 60.147, 209.079 59.650, 207.657 58.228 C 206.235 56.806, 205.649 57.006, 201.303 60.391 L 196.516 64.121 194.753 61.943 C 193.344 60.203, 192.700 60.004, 191.556 60.953 C 190.358 61.948, 191.608 64.015, 199.185 73.571 C 204.168 79.857, 208.528 84.993, 208.873 84.985 C 210.557 84.944, 212.155 83.214, 211.107 82.566 C 209.143 81.352, 209.879 80.388, 216.961 74.897 C 220.789 71.929, 223.939 68.773, 223.961 67.883 C 224.002 66.204, 211.093 49.132, 209.719 49.048 C 209.289 49.022, 208.677 49.677, 208.360 50.505 M 138.308 80.250 C 157.649 109.542, 159.337 112.631, 159.248 118.552 C 159.172 123.605, 157.723 126.724, 149.637 139.250 L 143.988 148 138.668 148 C 134.435 148, 132.924 147.541, 131.268 145.750 C 128.410 142.661, 114 119.942, 114 118.527 C 114 116.743, 116.315 114.204, 118.277 113.834 C 119.826 113.543, 119.592 112.762, 116.450 107.750 C 111.392 99.681, 109.364 99.854, 104.045 108.808 C 99.360 116.694, 99.045 119.918, 102.355 126.101 C 106.997 134.771, 124.010 159.935, 125.920 160.957 C 128.961 162.585, 147.567 162.275, 150.921 160.541 C 153.349 159.285, 167.913 138.487, 173.008 129 C 175.279 124.771, 175.879 118.969, 174.569 113.918 C 172.852 107.299, 141.819 59.475, 137.939 57.468 C 136.310 56.626, 132.371 56, 128.698 56 L 122.296 56 138.308 80.250 M 103.355 66.274 C 99.975 71.348, 91.992 83.164, 85.616 92.530 C 68.612 117.507, 68.573 118.892, 84.217 143.210 C 90.683 153.261, 95.502 159.715, 97.200 160.597 C 98.706 161.380, 102.772 162, 106.393 162 L 112.885 162 101.429 144.369 C 95.128 134.672, 89.699 125.648, 89.364 124.315 C 89.030 122.982, 88.970 119.668, 89.231 116.951 C 89.634 112.752, 91.190 109.763, 99.603 97.028 C 105.046 88.788, 109.950 82.185, 110.500 82.356 C 111.632 82.707, 131.585 113.217, 133.080 116.882 C 134.406 120.135, 133.401 122.700, 130.409 123.697 L 127.910 124.530 131.737 130.015 C 137.201 137.848, 138.875 137.743, 143.920 129.251 C 149.018 120.669, 149.157 117.296, 144.712 109.941 C 137.574 98.130, 110.678 57.001, 110.107 57.024 C 109.773 57.037, 106.735 61.199, 103.355 66.274 M 29.187 61.496 C 25.299 64.768, 22.716 71.124, 23.954 74.378 C 25.030 77.208, 28.664 80, 31.272 80 C 36.871 80, 43 73.052, 43 66.705 C 43 59.731, 34.910 56.681, 29.187 61.496 M 31.027 65.819 C 27.839 69.007, 27.200 71.800, 29.200 73.800 C 31.219 75.819, 34.742 75.143, 36.972 72.309 C 39.522 69.066, 39.278 66.244, 36.277 64.261 C 34.216 62.899, 33.834 63.013, 31.027 65.819 M 24.089 102.393 C 22.633 104.147, 24.230 108, 26.413 108 C 28.737 108, 30.521 105.049, 29.335 103.166 C 27.926 100.929, 25.590 100.584, 24.089 102.393 M 220.709 101.624 C 218.424 103.910, 221.414 108.546, 224.427 107.390 C 226.877 106.450, 226.115 101.588, 223.459 101.208 C 222.336 101.047, 221.099 101.235, 220.709 101.624 M 0.402 125 C 0.402 133.525, 0.556 137.012, 0.743 132.750 C 0.931 128.488, 0.931 121.513, 0.743 117.250 C 0.556 112.987, 0.402 116.475, 0.402 125 M 13.244 131.231 C 13.469 131.908, 15.307 132.852, 17.327 133.330 C 20.776 134.146, 21 134.435, 21 138.074 C 21 141.368, 20.550 142.181, 18 143.500 C 16.152 144.455, 15 145.836, 15 147.094 C 15 149.119, 15.023 149.120, 17.750 147.222 C 19.262 146.170, 23.313 143.826, 26.750 142.015 C 31.787 139.360, 33 138.252, 33 136.302 C 33 134.971, 32.627 134.112, 32.172 134.394 C 31.717 134.675, 27.332 133.802, 22.429 132.453 C 11.992 129.581, 12.726 129.679, 13.244 131.231 M 216.637 131.697 C 215.507 132.826, 215.960 135, 217.326 135 C 218.606 135, 223 139.031, 223 140.206 C 223 140.523, 221.259 141.480, 219.130 142.331 C 215.923 143.614, 214 145.562, 214 147.526 C 214 147.726, 216.477 146.755, 219.504 145.369 C 223.468 143.555, 226.337 142.931, 229.754 143.141 C 233.391 143.365, 234.500 143.090, 234.500 141.967 C 234.500 140.997, 233.244 140.396, 230.794 140.192 C 228.072 139.966, 225.785 138.713, 222.180 135.472 C 219.481 133.046, 216.987 131.347, 216.637 131.697 M 23 137.500 C 23 140.373, 23.047 140.391, 26.453 138.839 C 29.596 137.408, 29.687 136.417, 26.750 135.630 C 23.265 134.696, 23 134.828, 23 137.500 M 34.457 150.849 C 32.685 152.447, 15.687 157.173, 13.332 156.723 C 12.050 156.478, 11 156.575, 11 156.939 C 11 158.227, 13.425 160, 15.188 160 C 16.818 160, 36.043 154.197, 36.842 153.463 C 37.030 153.291, 36.785 152.438, 36.298 151.568 C 35.782 150.646, 35.015 150.346, 34.457 150.849 M 210.151 159.031 C 208.776 162.577, 208.109 165.774, 208.533 166.783 C 209.106 168.145, 209.442 167.827, 210.156 165.250 C 210.652 163.463, 211.207 162, 211.391 162 C 211.575 162, 214.999 163.350, 219 165 C 227.247 168.401, 228 168.537, 228 166.632 C 228 165.851, 224.764 164.030, 220.449 162.382 C 214.991 160.299, 213.017 159.084, 213.327 158 C 213.563 157.175, 213.924 155.881, 214.128 155.125 C 214.333 154.369, 214.048 153.581, 213.495 153.373 C 212.943 153.166, 211.438 155.712, 210.151 159.031 M 27.923 166.923 C 23.601 171.245, 23.788 176.988, 28.400 181.600 C 32.685 185.885, 37.413 186.206, 41.805 182.511 C 45.207 179.648, 46.162 176.171, 44.851 171.421 C 42.771 163.890, 33.436 161.410, 27.923 166.923 M 29.923 169.923 C 26.467 173.379, 26.251 175.778, 29.073 179.365 C 33.224 184.643, 43 181.043, 43 174.236 C 43 167.265, 35.165 164.681, 29.923 169.923 M 99.655 172.829 C 97.594 175.106, 97.523 176.397, 99.500 175.638 C 100.761 175.155, 101 176.415, 101 183.531 C 101 190.392, 101.285 192, 102.500 192 C 103.738 192, 104 190.167, 104 181.500 C 104 170.405, 103.233 168.875, 99.655 172.829 M 112.571 172.571 C 111.707 173.436, 111 175.654, 111 177.500 C 111 181.718, 113.457 184.353, 116.644 183.553 C 118.511 183.085, 119 183.364, 119 184.899 C 119 189.455, 115.709 192.010, 114.362 188.500 C 113.825 187.101, 111 186.316, 111 187.566 C 111 189.991, 113.435 192, 116.375 192 C 118.945 192, 119.937 191.434, 120.839 189.453 C 122.544 185.712, 122.304 175.879, 120.443 173.223 C 118.628 170.630, 114.827 170.316, 112.571 172.571 M 125 172.500 C 125 173.548, 126.056 174, 128.500 174 C 132.728 174, 132.767 174.394, 129.502 183.994 C 126.952 191.491, 126.912 192.631, 129.231 191.742 C 130.676 191.187, 136.254 173.220, 135.407 171.850 C 135.118 171.382, 132.659 171, 129.941 171 C 126.216 171, 125 171.369, 125 172.500 M 140.566 173.209 C 138.346 176.379, 140.368 178.002, 142.798 175.001 C 145.014 172.265, 147 173.046, 147 176.653 C 147 178.346, 146.336 179.361, 145 179.710 C 142.315 180.412, 142.481 181.442, 145.500 182.818 C 148.009 183.961, 148.522 185.477, 147.393 188.418 C 146.521 190.690, 142.916 190.395, 142.290 188 C 141.628 185.468, 139 185.370, 139 187.878 C 139 190.635, 141.421 192.180, 145.178 191.818 C 149.776 191.376, 151.950 187.099, 149.487 183.340 C 148.277 181.492, 148.116 180.484, 148.907 179.693 C 150.364 178.236, 150.299 173.699, 148.800 172.200 C 146.816 170.216, 142.272 170.773, 140.566 173.209 M 203.639 171.694 C 202.268 173.065, 203.277 173.985, 211.110 178.503 C 216.887 181.835, 219.528 182.872, 220.293 182.107 C 220.884 181.516, 221.172 180.886, 220.933 180.707 C 220.546 180.415, 206.404 172.196, 204.889 171.382 C 204.554 171.202, 203.991 171.342, 203.639 171.694 M 114.667 173.667 C 114.300 174.033, 114 175.833, 114 177.667 C 114 180.350, 114.396 181, 116.031 181 C 118.468 181, 119.443 178.902, 118.589 175.498 C 117.991 173.118, 116.099 172.234, 114.667 173.667 M 194.989 184.250 C 192.701 188.002, 192.638 188.455, 194.035 191.066 C 195.288 193.407, 198.481 193.533, 203.495 191.438 C 207.773 189.650, 210 190.115, 210 192.794 C 210 194.940, 206.049 198.993, 203.936 199.015 C 202.731 199.028, 202.742 199.187, 204 200 C 206.144 201.386, 206.431 201.296, 209.413 198.314 C 211.481 196.246, 212.030 194.833, 211.799 192.166 C 211.364 187.134, 209.178 186.181, 203.090 188.370 C 200.337 189.360, 197.616 189.880, 197.042 189.526 C 195.280 188.437, 195.879 186.240, 198.500 184.179 C 201.526 181.798, 201.648 181, 198.985 181 C 197.785 181, 196.169 182.314, 194.989 184.250 M 47.625 190.038 C 44.531 193.380, 42 196.928, 42 197.922 C 42 200.264, 45.729 205, 47.573 205 C 48.358 205, 49 205.648, 49 206.441 C 49 209.971, 51.652 208.799, 58.068 202.433 C 63.493 197.049, 64.694 195.336, 63.799 194.257 C 62.881 193.152, 61.555 193.993, 56.810 198.688 C 51.031 204.406, 50.917 204.464, 48.234 202.958 C 43.943 200.549, 44.357 198.526, 50.447 192.141 C 55.049 187.316, 55.792 186.073, 54.645 185.120 C 53.526 184.192, 52.138 185.164, 47.625 190.038 M 180.792 197.621 L 177.108 200.242 182.710 207.371 C 190.194 216.896, 189.844 216.570, 190.567 214.685 C 190.987 213.591, 189.496 210.894, 186.141 206.677 C 180.974 200.183, 180.745 198, 185.231 198 C 187.615 198, 188.537 200.526, 187.214 203.430 C 186.251 205.544, 186.475 205.826, 189.948 206.866 C 194.362 208.189, 199.664 208.352, 200.384 207.188 C 200.660 206.742, 198.205 205.823, 194.930 205.146 C 189.398 204.004, 189.052 203.772, 190.058 201.891 C 190.891 200.334, 190.773 199.303, 189.548 197.433 C 187.506 194.316, 185.374 194.362, 180.792 197.621 M 164 208.503 C 161.525 209.826, 159.972 210.930, 160.550 210.955 C 161.127 210.980, 163.355 214.601, 165.502 219.003 C 168.866 225.903, 169.686 226.920, 171.452 226.377 C 176.125 224.939, 179 222.867, 179 220.935 C 179 218.939, 178.982 218.939, 176.912 220.867 C 173.435 224.107, 171.297 224.132, 169.978 220.947 C 168.692 217.842, 169.302 216, 171.618 216 C 172.443 216, 172.817 215.514, 172.450 214.919 C 172.082 214.324, 170.724 214.103, 169.431 214.428 C 166.538 215.154, 163.803 211.373, 166.147 209.888 C 167.574 208.983, 168.946 208.665, 170.344 208.913 C 171.482 209.115, 170.623 206.695, 169.438 206.360 C 168.922 206.215, 166.475 207.179, 164 208.503 M 79.677 213.520 C 78.205 217.106, 77 221.086, 77 222.365 C 77 225.366, 79.984 228.035, 83.629 228.295 C 85.208 228.408, 87.026 229.174, 87.668 229.998 C 88.311 230.823, 89.054 231.273, 89.320 230.998 C 90.464 229.820, 96.740 213.074, 96.230 212.563 C 95.108 211.442, 93 212.035, 93 213.471 C 93 216.158, 88.126 226.015, 86.486 226.644 C 84.019 227.590, 80 225.333, 80 223.002 C 80 221.879, 81.117 218.212, 82.481 214.854 C 84.795 209.160, 84.970 207, 83.118 207 C 82.699 207, 81.150 209.934, 79.677 213.520 M 153.452 212.804 C 152.907 213.187, 152.340 215.784, 152.191 218.576 C 152.042 221.367, 151.577 224.934, 151.158 226.502 C 150.408 229.306, 150.327 229.239, 146.050 222.308 C 142.807 217.054, 141.256 215.382, 139.943 215.725 C 138.455 216.114, 139.056 217.489, 143.822 224.593 C 146.986 229.311, 150.167 233, 151.069 233 C 152.354 233, 152.933 230.985, 153.957 222.952 C 155.261 212.723, 155.203 211.574, 153.452 212.804 M 104.461 217.750 C 104.439 219.262, 104.066 223.537, 103.631 227.250 C 103.143 231.421, 103.205 234, 103.795 234 C 104.906 234, 106 229.224, 106 224.375 C 106 222.519, 106.398 221, 106.885 221 C 107.372 221, 109.659 224.125, 111.967 227.945 C 114.275 231.765, 116.750 235.377, 117.467 235.972 C 119.096 237.325, 119.633 235.391, 120.584 224.750 C 121.478 214.739, 119.613 214.277, 118.389 224.207 L 117.500 231.414 112.551 223.207 C 107.421 214.700, 104.532 212.751, 104.461 217.750 M 130.149 224.250 C 130.549 228.238, 130.904 232.512, 130.938 233.750 C 130.976 235.143, 131.624 236, 132.639 236 C 134.030 236, 134.183 235.205, 133.648 230.750 C 133.301 227.863, 133.013 223.588, 133.009 221.250 C 133.002 217.837, 132.648 217, 131.211 217 C 129.591 217, 129.491 217.681, 130.149 224.250" stroke="none" fill="#0f5eac" fill-rule="evenodd"/><path d="M 103.922 5.552 C 53.651 14.655, 14.301 54.189, 5.548 104.385 C 3.567 115.745, 3.567 134.255, 5.548 145.615 C 15.668 203.648, 65.854 246, 124.500 246 C 157.434 246, 186.205 234.044, 209.627 210.625 C 240.555 179.702, 252.297 136.964, 241.529 94.514 C 236.157 73.339, 226.805 57.033, 210.500 40.416 C 191.436 20.986, 170.583 9.939, 144.619 5.514 C 133.807 3.671, 114.208 3.689, 103.922 5.552 M 109.210 20.250 L 109.500 28.500 117.250 28.792 L 125 29.084 125 33.542 C 125 37.304, 125.306 38, 126.961 38 C 128.738 38, 128.949 37.177, 129.211 29.250 C 129.442 22.267, 129.803 20.500, 131 20.500 C 132.197 20.500, 132.558 22.267, 132.789 29.250 C 133.051 37.177, 133.262 38, 135.039 38 C 136.886 38, 137 37.247, 137 25 C 137 12.667, 136.897 12, 135 12 C 133.667 12, 133 12.667, 133 14 C 133 15.333, 132.333 16, 131 16 C 129.667 16, 129 15.333, 129 14 C 129 12.667, 128.333 12, 127 12 C 125.205 12, 125 12.667, 125 18.500 L 125 25 119.500 25 L 114 25 114 20.500 L 114 16 118 16 C 121.333 16, 122 15.667, 122 14 C 122 12.204, 121.333 12, 115.460 12 L 108.919 12 109.210 20.250 M 160.573 17.670 C 160.221 18.589, 160.446 19.657, 161.073 20.045 C 161.900 20.556, 161.910 20.938, 161.107 21.434 C 160.498 21.810, 160 23.409, 160 24.986 C 160 31.770, 174.571 37.078, 176.501 30.998 C 176.849 29.899, 177.779 29, 178.567 29 C 179.355 29, 180 28.812, 180 28.582 C 180 28.352, 180.244 27.529, 180.542 26.752 C 180.900 25.819, 179.725 24.729, 177.069 23.531 C 174.861 22.535, 173.280 21.356, 173.555 20.911 C 174.197 19.872, 170.874 18.135, 169.318 18.696 C 168.668 18.930, 166.777 18.419, 165.117 17.561 C 161.381 15.629, 161.356 15.629, 160.573 17.670 M 70.536 25.030 C 64.506 28.195, 59.419 31.242, 59.233 31.801 C 58.525 33.924, 61.085 33.997, 65.063 31.968 C 67.335 30.809, 69.412 30.078, 69.678 30.345 C 70.661 31.327, 67.852 35.025, 65.005 36.498 C 63.126 37.469, 62.271 38.543, 62.630 39.479 C 63.105 40.716, 63.803 40.631, 67.135 38.931 C 69.304 37.825, 71.848 35.700, 72.789 34.210 C 74.075 32.173, 75.165 31.577, 77.174 31.809 C 80.774 32.225, 88.634 28.234, 87.146 26.746 C 86.357 25.957, 85.341 25.979, 83.480 26.827 C 80.540 28.167, 76 28.393, 76 27.199 C 76 26.759, 78.068 25.394, 80.595 24.166 C 84.429 22.303, 84.988 21.691, 83.973 20.467 C 83.303 19.660, 82.473 19.062, 82.128 19.138 C 81.782 19.214, 76.566 21.865, 70.536 25.030 M 164.302 24.656 C 163.496 26.756, 167.325 30, 170.611 30 C 173.735 30, 173.836 26.699, 170.777 24.557 C 167.887 22.532, 165.101 22.575, 164.302 24.656 M 180.481 32.037 C 179.077 34.808, 178.196 37.508, 178.523 38.037 C 179.448 39.534, 181.997 39.171, 182.658 37.448 C 183.092 36.319, 184.035 36.068, 186.127 36.528 C 188.303 37.006, 189 36.792, 189 35.647 C 189 34.815, 188.100 33.849, 187.001 33.500 C 185.329 32.970, 185.182 32.529, 186.104 30.806 C 186.950 29.225, 186.892 28.546, 185.853 27.888 C 183.592 26.455, 183.129 26.812, 180.481 32.037 M 41.872 30.750 C 40.629 32.336, 40.664 32.371, 42.250 31.128 C 43.916 29.821, 44.445 29, 43.622 29 C 43.415 29, 42.627 29.788, 41.872 30.750 M 77 36.649 C 70.125 40.288, 64.332 43.411, 64.126 43.590 C 63.921 43.768, 64.024 44.620, 64.356 45.484 C 64.878 46.846, 65.622 46.718, 69.946 44.527 C 72.689 43.137, 75.388 42, 75.943 42 C 76.498 42, 77.765 43.584, 78.758 45.520 C 80.377 48.676, 80.753 48.901, 82.399 47.697 C 84.122 46.438, 84.135 46.162, 82.617 43.227 C 81.728 41.507, 81 39.861, 81 39.570 C 81 39.279, 82.912 38.077, 85.250 36.899 C 90.965 34.020, 91.979 33.108, 91.334 31.427 C 91.032 30.642, 90.497 30.007, 90.143 30.016 C 89.789 30.025, 83.875 33.010, 77 36.649 M 155.701 31.336 C 155.356 32.235, 158.435 34.270, 165.094 37.546 C 170.542 40.227, 175 42.573, 175 42.760 C 175 42.947, 174.307 44.440, 173.459 46.079 C 171.823 49.243, 172.208 51, 174.539 51 C 175.884 51, 180 44.254, 180 42.048 C 180 41.060, 159.001 30, 157.124 30 C 156.623 30, 155.983 30.601, 155.701 31.336 M 29.872 42.750 C 28.629 44.336, 28.664 44.371, 30.250 43.128 C 31.916 41.821, 32.445 41, 31.622 41 C 31.415 41, 30.627 41.788, 29.872 42.750 M 108 45.482 C 70.069 53.937, 44.014 86.317, 44.014 125 C 44.014 164.194, 70.663 196.792, 109.066 204.573 C 119.806 206.750, 136.303 206.070, 146.973 203.012 C 174.264 195.189, 195.695 173.015, 203.127 144.912 C 206.119 133.598, 206.131 115.985, 203.155 104.797 C 198.893 88.774, 189.094 73.328, 176.430 62.670 C 168.800 56.249, 154.808 48.894, 145.500 46.412 C 137.056 44.160, 116.244 43.644, 108 45.482 M 42.841 50.883 C 41.912 52.371, 41.248 52.621, 40.304 51.837 C 38.740 50.539, 36 51.448, 36 53.264 C 36 53.994, 40.296 57.871, 45.546 61.880 C 53.358 67.844, 55.357 68.949, 56.546 67.962 C 57.346 67.298, 58 66.461, 58 66.102 C 58 65.742, 55.063 63.229, 51.472 60.517 C 46.837 57.016, 45.130 55.139, 45.583 54.043 C 47.346 49.785, 45.125 47.225, 42.841 50.883 M 208.360 50.505 C 208.007 51.425, 209.961 54.706, 213.391 58.951 C 216.476 62.769, 219 66.341, 219 66.888 C 219 68.423, 207.130 77.199, 206 76.500 C 204.050 75.295, 205.051 73.128, 209 70 C 211.200 68.258, 213 66.221, 213 65.475 C 213 62.633, 210.830 63.006, 206.443 66.600 C 202.473 69.853, 201.713 70.142, 200.448 68.877 C 199.183 67.611, 199.647 66.944, 204.111 63.611 C 208.751 60.147, 209.079 59.650, 207.657 58.228 C 206.235 56.806, 205.649 57.006, 201.303 60.391 L 196.516 64.121 194.753 61.943 C 193.344 60.203, 192.700 60.004, 191.556 60.953 C 190.358 61.948, 191.608 64.015, 199.185 73.571 C 204.168 79.857, 208.528 84.993, 208.873 84.985 C 210.557 84.944, 212.155 83.214, 211.107 82.566 C 209.143 81.352, 209.879 80.388, 216.961 74.897 C 220.789 71.929, 223.939 68.773, 223.961 67.883 C 224.002 66.204, 211.093 49.132, 209.719 49.048 C 209.289 49.022, 208.677 49.677, 208.360 50.505 M 138.308 80.250 C 157.649 109.542, 159.337 112.631, 159.248 118.552 C 159.172 123.605, 157.723 126.724, 149.637 139.250 L 143.988 148 138.668 148 C 134.435 148, 132.924 147.541, 131.268 145.750 C 128.410 142.661, 114 119.942, 114 118.527 C 114 116.743, 116.315 114.204, 118.277 113.834 C 119.826 113.543, 119.592 112.762, 116.450 107.750 C 111.392 99.681, 109.364 99.854, 104.045 108.808 C 99.360 116.694, 99.045 119.918, 102.355 126.101 C 106.997 134.771, 124.010 159.935, 125.920 160.957 C 128.961 162.585, 147.567 162.275, 150.921 160.541 C 153.349 159.285, 167.913 138.487, 173.008 129 C 175.279 124.771, 175.879 118.969, 174.569 113.918 C 172.852 107.299, 141.819 59.475, 137.939 57.468 C 136.310 56.626, 132.371 56, 128.698 56 L 122.296 56 138.308 80.250 M 103.355 66.274 C 99.975 71.348, 91.992 83.164, 85.616 92.530 C 68.612 117.507, 68.573 118.892, 84.217 143.210 C 90.683 153.261, 95.502 159.715, 97.200 160.597 C 98.706 161.380, 102.772 162, 106.393 162 L 112.885 162 101.429 144.369 C 95.128 134.672, 89.699 125.648, 89.364 124.315 C 89.030 122.982, 88.970 119.668, 89.231 116.951 C 89.634 112.752, 91.190 109.763, 99.603 97.028 C 105.046 88.788, 109.950 82.185, 110.500 82.356 C 111.632 82.707, 131.585 113.217, 133.080 116.882 C 134.406 120.135, 133.401 122.700, 130.409 123.697 L 127.910 124.530 131.737 130.015 C 137.201 137.848, 138.875 137.743, 143.920 129.251 C 149.018 120.669, 149.157 117.296, 144.712 109.941 C 137.574 98.130, 110.678 57.001, 110.107 57.024 C 109.773 57.037, 106.735 61.199, 103.355 66.274 M 29.187 61.496 C 25.299 64.768, 22.716 71.124, 23.954 74.378 C 25.030 77.208, 28.664 80, 31.272 80 C 36.871 80, 43 73.052, 43 66.705 C 43 59.731, 34.910 56.681, 29.187 61.496 M 31.027 65.819 C 27.839 69.007, 27.200 71.800, 29.200 73.800 C 31.219 75.819, 34.742 75.143, 36.972 72.309 C 39.522 69.066, 39.278 66.244, 36.277 64.261 C 34.216 62.899, 33.834 63.013, 31.027 65.819 M 24.089 102.393 C 22.633 104.147, 24.230 108, 26.413 108 C 28.737 108, 30.521 105.049, 29.335 103.166 C 27.926 100.929, 25.590 100.584, 24.089 102.393 M 220.709 101.624 C 218.424 103.910, 221.414 108.546, 224.427 107.390 C 226.877 106.450, 226.115 101.588, 223.459 101.208 C 222.336 101.047, 221.099 101.235, 220.709 101.624 M 13.244 131.231 C 13.469 131.908, 15.307 132.852, 17.327 133.330 C 20.776 134.146, 21 134.435, 21 138.074 C 21 141.368, 20.550 142.181, 18 143.500 C 16.152 144.455, 15 145.836, 15 147.094 C 15 149.119, 15.023 149.120, 17.750 147.222 C 19.262 146.170, 23.313 143.826, 26.750 142.015 C 31.787 139.360, 33 138.252, 33 136.302 C 33 134.971, 32.627 134.112, 32.172 134.394 C 31.717 134.675, 27.332 133.802, 22.429 132.453 C 11.992 129.581, 12.726 129.679, 13.244 131.231 M 216.637 131.697 C 215.507 132.826, 215.960 135, 217.326 135 C 218.606 135, 223 139.031, 223 140.206 C 223 140.523, 221.259 141.480, 219.130 142.331 C 215.923 143.614, 214 145.562, 214 147.526 C 214 147.726, 216.477 146.755, 219.504 145.369 C 223.468 143.555, 226.337 142.931, 229.754 143.141 C 233.391 143.365, 234.500 143.090, 234.500 141.967 C 234.500 140.997, 233.244 140.396, 230.794 140.192 C 228.072 139.966, 225.785 138.713, 222.180 135.472 C 219.481 133.046, 216.987 131.347, 216.637 131.697 M 23 137.500 C 23 140.373, 23.047 140.391, 26.453 138.839 C 29.596 137.408, 29.687 136.417, 26.750 135.630 C 23.265 134.696, 23 134.828, 23 137.500 M 34.457 150.849 C 32.685 152.447, 15.687 157.173, 13.332 156.723 C 12.050 156.478, 11 156.575, 11 156.939 C 11 158.227, 13.425 160, 15.188 160 C 16.818 160, 36.043 154.197, 36.842 153.463 C 37.030 153.291, 36.785 152.438, 36.298 151.568 C 35.782 150.646, 35.015 150.346, 34.457 150.849 M 210.151 159.031 C 208.776 162.577, 208.109 165.774, 208.533 166.783 C 209.106 168.145, 209.442 167.827, 210.156 165.250 C 210.652 163.463, 211.207 162, 211.391 162 C 211.575 162, 214.999 163.350, 219 165 C 227.247 168.401, 228 168.537, 228 166.632 C 228 165.851, 224.764 164.030, 220.449 162.382 C 214.991 160.299, 213.017 159.084, 213.327 158 C 213.563 157.175, 213.924 155.881, 214.128 155.125 C 214.333 154.369, 214.048 153.581, 213.495 153.373 C 212.943 153.166, 211.438 155.712, 210.151 159.031 M 27.923 166.923 C 23.601 171.245, 23.788 176.988, 28.400 181.600 C 32.685 185.885, 37.413 186.206, 41.805 182.511 C 45.207 179.648, 46.162 176.171, 44.851 171.421 C 42.771 163.890, 33.436 161.410, 27.923 166.923 M 29.923 169.923 C 26.467 173.379, 26.251 175.778, 29.073 179.365 C 33.224 184.643, 43 181.043, 43 174.236 C 43 167.265, 35.165 164.681, 29.923 169.923 M 99.655 172.829 C 97.594 175.106, 97.523 176.397, 99.500 175.638 C 100.761 175.155, 101 176.415, 101 183.531 C 101 190.392, 101.285 192, 102.500 192 C 103.738 192, 104 190.167, 104 181.500 C 104 170.405, 103.233 168.875, 99.655 172.829 M 112.571 172.571 C 111.707 173.436, 111 175.654, 111 177.500 C 111 181.718, 113.457 184.353, 116.644 183.553 C 118.511 183.085, 119 183.364, 119 184.899 C 119 189.455, 115.709 192.010, 114.362 188.500 C 113.825 187.101, 111 186.316, 111 187.566 C 111 189.991, 113.435 192, 116.375 192 C 118.945 192, 119.937 191.434, 120.839 189.453 C 122.544 185.712, 122.304 175.879, 120.443 173.223 C 118.628 170.630, 114.827 170.316, 112.571 172.571 M 125 172.500 C 125 173.548, 126.056 174, 128.500 174 C 132.728 174, 132.767 174.394, 129.502 183.994 C 126.952 191.491, 126.912 192.631, 129.231 191.742 C 130.676 191.187, 136.254 173.220, 135.407 171.850 C 135.118 171.382, 132.659 171, 129.941 171 C 126.216 171, 125 171.369, 125 172.500 M 140.566 173.209 C 138.346 176.379, 140.368 178.002, 142.798 175.001 C 145.014 172.265, 147 173.046, 147 176.653 C 147 178.346, 146.336 179.361, 145 179.710 C 142.315 180.412, 142.481 181.442, 145.500 182.818 C 148.009 183.961, 148.522 185.477, 147.393 188.418 C 146.521 190.690, 142.916 190.395, 142.290 188 C 141.628 185.468, 139 185.370, 139 187.878 C 139 190.635, 141.421 192.180, 145.178 191.818 C 149.776 191.376, 151.950 187.099, 149.487 183.340 C 148.277 181.492, 148.116 180.484, 148.907 179.693 C 150.364 178.236, 150.299 173.699, 148.800 172.200 C 146.816 170.216, 142.272 170.773, 140.566 173.209 M 203.639 171.694 C 202.268 173.065, 203.277 173.985, 211.110 178.503 C 216.887 181.835, 219.528 182.872, 220.293 182.107 C 220.884 181.516, 221.172 180.886, 220.933 180.707 C 220.546 180.415, 206.404 172.196, 204.889 171.382 C 204.554 171.202, 203.991 171.342, 203.639 171.694 M 114.667 173.667 C 114.300 174.033, 114 175.833, 114 177.667 C 114 180.350, 114.396 181, 116.031 181 C 118.468 181, 119.443 178.902, 118.589 175.498 C 117.991 173.118, 116.099 172.234, 114.667 173.667 M 194.989 184.250 C 192.701 188.002, 192.638 188.455, 194.035 191.066 C 195.288 193.407, 198.481 193.533, 203.495 191.438 C 207.773 189.650, 210 190.115, 210 192.794 C 210 194.940, 206.049 198.993, 203.936 199.015 C 202.731 199.028, 202.742 199.187, 204 200 C 206.144 201.386, 206.431 201.296, 209.413 198.314 C 211.481 196.246, 212.030 194.833, 211.799 192.166 C 211.364 187.134, 209.178 186.181, 203.090 188.370 C 200.337 189.360, 197.616 189.880, 197.042 189.526 C 195.280 188.437, 195.879 186.240, 198.500 184.179 C 201.526 181.798, 201.648 181, 198.985 181 C 197.785 181, 196.169 182.314, 194.989 184.250 M 47.625 190.038 C 44.531 193.380, 42 196.928, 42 197.922 C 42 200.264, 45.729 205, 47.573 205 C 48.358 205, 49 205.648, 49 206.441 C 49 209.971, 51.652 208.799, 58.068 202.433 C 63.493 197.049, 64.694 195.336, 63.799 194.257 C 62.881 193.152, 61.555 193.993, 56.810 198.688 C 51.031 204.406, 50.917 204.464, 48.234 202.958 C 43.943 200.549, 44.357 198.526, 50.447 192.141 C 55.049 187.316, 55.792 186.073, 54.645 185.120 C 53.526 184.192, 52.138 185.164, 47.625 190.038 M 180.792 197.621 L 177.108 200.242 182.710 207.371 C 190.194 216.896, 189.844 216.570, 190.567 214.685 C 190.987 213.591, 189.496 210.894, 186.141 206.677 C 180.974 200.183, 180.745 198, 185.231 198 C 187.615 198, 188.537 200.526, 187.214 203.430 C 186.251 205.544, 186.475 205.826, 189.948 206.866 C 194.362 208.189, 199.664 208.352, 200.384 207.188 C 200.660 206.742, 198.205 205.823, 194.930 205.146 C 189.398 204.004, 189.052 203.772, 190.058 201.891 C 190.891 200.334, 190.773 199.303, 189.548 197.433 C 187.506 194.316, 185.374 194.362, 180.792 197.621 M 164 208.503 C 161.525 209.826, 159.972 210.930, 160.550 210.955 C 161.127 210.980, 163.355 214.601, 165.502 219.003 C 168.866 225.903, 169.686 226.920, 171.452 226.377 C 176.125 224.939, 179 222.867, 179 220.935 C 179 218.939, 178.982 218.939, 176.912 220.867 C 173.435 224.107, 171.297 224.132, 169.978 220.947 C 168.692 217.842, 169.302 216, 171.618 216 C 172.443 216, 172.817 215.514, 172.450 214.919 C 172.082 214.324, 170.724 214.103, 169.431 214.428 C 166.538 215.154, 163.803 211.373, 166.147 209.888 C 167.574 208.983, 168.946 208.665, 170.344 208.913 C 171.482 209.115, 170.623 206.695, 169.438 206.360 C 168.922 206.215, 166.475 207.179, 164 208.503 M 79.677 213.520 C 78.205 217.106, 77 221.086, 77 222.365 C 77 225.366, 79.984 228.035, 83.629 228.295 C 85.208 228.408, 87.026 229.174, 87.668 229.998 C 88.311 230.823, 89.054 231.273, 89.320 230.998 C 90.464 229.820, 96.740 213.074, 96.230 212.563 C 95.108 211.442, 93 212.035, 93 213.471 C 93 216.158, 88.126 226.015, 86.486 226.644 C 84.019 227.590, 80 225.333, 80 223.002 C 80 221.879, 81.117 218.212, 82.481 214.854 C 84.795 209.160, 84.970 207, 83.118 207 C 82.699 207, 81.150 209.934, 79.677 213.520 M 153.452 212.804 C 152.907 213.187, 152.340 215.784, 152.191 218.576 C 152.042 221.367, 151.577 224.934, 151.158 226.502 C 150.408 229.306, 150.327 229.239, 146.050 222.308 C 142.807 217.054, 141.256 215.382, 139.943 215.725 C 138.455 216.114, 139.056 217.489, 143.822 224.593 C 146.986 229.311, 150.167 233, 151.069 233 C 152.354 233, 152.933 230.985, 153.957 222.952 C 155.261 212.723, 155.203 211.574, 153.452 212.804 M 104.461 217.750 C 104.439 219.262, 104.066 223.537, 103.631 227.250 C 103.143 231.421, 103.205 234, 103.795 234 C 104.906 234, 106 229.224, 106 224.375 C 106 222.519, 106.398 221, 106.885 221 C 107.372 221, 109.659 224.125, 111.967 227.945 C 114.275 231.765, 116.750 235.377, 117.467 235.972 C 119.096 237.325, 119.633 235.391, 120.584 224.750 C 121.478 214.739, 119.613 214.277, 118.389 224.207 L 117.500 231.414 112.551 223.207 C 107.421 214.700, 104.532 212.751, 104.461 217.750 M 130.149 224.250 C 130.549 228.238, 130.904 232.512, 130.938 233.750 C 130.976 235.143, 131.624 236, 132.639 236 C 134.030 236, 134.183 235.205, 133.648 230.750 C 133.301 227.863, 133.013 223.588, 133.009 221.250 C 133.002 217.837, 132.648 217, 131.211 217 C 129.591 217, 129.491 217.681, 130.149 224.250" stroke="none" fill="#f2f5f8" fill-rule="evenodd"/></svg>